<svg width="291" height="72" viewBox="0 0 291 72" fill="none" xmlns="http://www.w3.org/2000/svg">
<g filter="url(#filter0_d_0_1)">
<rect x="0.805264" y="31.2788" width="27.9207" height="27.9207" rx="2.61757" transform="rotate(1.04484 0.805264 31.2788)" fill="white"/>
<rect x="0.805264" y="31.2788" width="27.9207" height="27.9207" rx="2.61757" transform="rotate(1.04484 0.805264 31.2788)" stroke="black" stroke-width="0.581681"/>
<g clip-path="url(#clip0_0_1)">
<path d="M9.41761 37.5444C9.39125 38.9898 8.19816 40.1401 6.75275 40.1138C5.30735 40.0874 4.15699 38.8943 4.18335 37.4489C4.20971 36.0035 5.40281 34.8532 6.84821 34.8795C8.29362 34.9059 9.44397 36.099 9.41761 37.5444Z" fill="black"/>
<path d="M17.1257 45.539C17.0994 46.9844 15.9063 48.1348 14.4609 48.1084C13.0155 48.082 11.8651 46.889 11.8915 45.4435C11.9178 43.9981 13.1109 42.8478 14.5563 42.8741C16.0018 42.9005 17.1521 44.0936 17.1257 45.539Z" fill="black"/>
<path d="M9.13123 53.2473C9.10487 54.6927 7.91178 55.843 6.46637 55.8167C5.02097 55.7903 3.87061 54.5972 3.89697 53.1518C3.92333 51.7064 5.11643 50.556 6.56183 50.5824C8.00725 50.6088 9.1576 51.8018 9.13123 53.2473Z" fill="black"/>
<path d="M25.1204 37.8308C25.094 39.2762 23.9009 40.4265 22.4555 40.4002C21.0101 40.3738 19.8597 39.1807 19.8861 37.7353C19.9125 36.2899 21.1056 35.1395 22.551 35.1659C23.9964 35.1923 25.1467 36.3854 25.1204 37.8308Z" fill="black"/>
<path d="M24.834 53.5336C24.8076 54.9791 23.6145 56.1294 22.1691 56.103C20.7237 56.0767 19.5734 54.8836 19.5997 53.4382C19.6261 51.9928 20.8192 50.8424 22.2646 50.8688C23.71 50.8951 24.8604 52.0882 24.834 53.5336Z" fill="black"/>
</g>
</g>
<g filter="url(#filter1_d_0_1)">
<g clip-path="url(#clip1_0_1)">
<rect x="28.8899" width="28.5024" height="28.5024" rx="2.90841" transform="rotate(23.3617 28.8899 0)" fill="white"/>
<g clip-path="url(#clip2_0_1)">
<path d="M38.7247 19.7719C38.1514 21.099 36.6109 21.7101 35.2837 21.1369C33.9566 20.5636 33.3455 19.0231 33.9187 17.6959C34.492 16.3688 36.0325 15.7577 37.3596 16.3309C38.6868 16.9042 39.2979 18.4447 38.7247 19.7719Z" fill="black"/>
<path d="M28.4018 23.8671C27.8285 25.1942 26.288 25.8053 24.9609 25.2321C23.6337 24.6588 23.0226 23.1183 23.5958 21.7912C24.1691 20.464 25.7096 19.8529 27.0368 20.4261C28.3639 20.9994 28.975 22.5399 28.4018 23.8671Z" fill="black"/>
<path d="M49.0474 15.6769C48.4742 17.004 46.9336 17.6152 45.6065 17.0419C44.2794 16.4687 43.6682 14.9281 44.2415 13.601C44.8147 12.2738 46.3553 11.6627 47.6824 12.236C49.0095 12.8092 49.6207 14.3498 49.0474 15.6769Z" fill="black"/>
</g>
</g>
<rect x="29.0416" y="0.382326" width="27.9207" height="27.9207" rx="2.61757" transform="rotate(23.3617 29.0416 0.382326)" stroke="black" stroke-width="0.581681"/>
</g>
<g filter="url(#filter2_d_0_1)">
<mask id="path-12-inside-1_0_1" fill="white">
<path d="M32.779 59.6466V38.613H44.394V59.6466H32.779ZM43.4633 52.2569C43.4633 51.4876 43.2523 50.8175 42.8304 50.2467C42.4085 49.6634 41.757 49.3036 40.876 49.1671V49.0926C41.4964 48.9685 41.999 48.6645 42.3837 48.1805C42.7684 47.6966 42.9607 47.1319 42.9607 46.4867C42.9607 45.618 42.6567 44.9169 42.0486 44.3833C41.453 43.8497 40.5409 43.5829 39.3124 43.5829H33.7469V44.7742H35.2732V54.4906H33.7469V55.6819H39.4055C40.7457 55.6819 41.757 55.353 42.4395 54.6954C43.122 54.0253 43.4633 53.2125 43.4633 52.2569ZM41.5088 46.8031C41.5088 47.4732 41.2731 47.9882 40.8015 48.348C40.3424 48.6955 39.7529 48.8692 39.0332 48.8692H36.632V44.7742H39.089C39.846 44.7742 40.4354 44.9231 40.8573 45.2209C41.2917 45.5187 41.5088 46.0461 41.5088 46.8031ZM42.0114 52.1825C42.0114 52.9891 41.7508 53.5785 41.2296 53.9508C40.7208 54.3107 40.0321 54.4906 39.1635 54.4906H36.632V49.9861H39.6102C40.4044 49.9861 41.0001 50.1846 41.3971 50.5817C41.8067 50.9664 42.0114 51.5 42.0114 52.1825Z"/>
<path d="M43.94 59.6466V38.613H57.193V59.6466H43.94ZM55.5364 50.6562H56.4857V49.4463H51.2924V50.6562H54.1776V51.7358C54.1776 52.4679 53.8735 53.138 53.2655 53.746C52.6574 54.3417 51.8012 54.6395 50.6968 54.6395C49.369 54.6395 48.308 54.1804 47.5138 53.2621C46.7196 52.3438 46.3225 51.1339 46.3225 49.6324C46.3225 48.1557 46.7382 46.952 47.5697 46.0213C48.4011 45.0906 49.4931 44.6253 50.8457 44.6253C51.5902 44.6253 52.1983 44.7184 52.6698 44.9045C53.1538 45.0782 53.5633 45.2768 53.8984 45.5001L54.2706 47.2126L55.4247 47.0823L55.0896 44.8114C54.6305 44.4019 54.0349 44.0669 53.3027 43.8063C52.583 43.5333 51.7392 43.3968 50.7712 43.3968C49.6172 43.3968 48.5934 43.6822 47.7 44.253C46.8189 44.8114 46.124 45.5684 45.6152 46.5239C45.1188 47.467 44.8707 48.5218 44.8707 49.6882C44.8707 51.4255 45.3856 52.8898 46.4156 54.0811C47.4456 55.2724 48.792 55.868 50.4548 55.868C51.3483 55.868 52.1238 55.6943 52.7815 55.3468C53.4516 54.987 53.9666 54.5402 54.3265 54.0066L54.494 55.6819H55.5364V50.6562Z"/>
<path d="M56.7551 59.6466V38.613H68.0723V59.6466H56.7551ZM57.7231 55.6819H66.7321L67.0858 52.2569L65.9131 52.1266L65.5409 54.4906H60.6082V50.135H66.3226V48.9437H60.6082V44.7742H65.3733L65.7456 47.1381L66.9369 47.0079L66.5646 43.5829H57.7231V44.7742H59.2494V54.4906H57.7231V55.6819Z"/>
</mask>
<path d="M32.779 59.6466V38.613H44.394V59.6466H32.779ZM43.4633 52.2569C43.4633 51.4876 43.2523 50.8175 42.8304 50.2467C42.4085 49.6634 41.757 49.3036 40.876 49.1671V49.0926C41.4964 48.9685 41.999 48.6645 42.3837 48.1805C42.7684 47.6966 42.9607 47.1319 42.9607 46.4867C42.9607 45.618 42.6567 44.9169 42.0486 44.3833C41.453 43.8497 40.5409 43.5829 39.3124 43.5829H33.7469V44.7742H35.2732V54.4906H33.7469V55.6819H39.4055C40.7457 55.6819 41.757 55.353 42.4395 54.6954C43.122 54.0253 43.4633 53.2125 43.4633 52.2569ZM41.5088 46.8031C41.5088 47.4732 41.2731 47.9882 40.8015 48.348C40.3424 48.6955 39.7529 48.8692 39.0332 48.8692H36.632V44.7742H39.089C39.846 44.7742 40.4354 44.9231 40.8573 45.2209C41.2917 45.5187 41.5088 46.0461 41.5088 46.8031ZM42.0114 52.1825C42.0114 52.9891 41.7508 53.5785 41.2296 53.9508C40.7208 54.3107 40.0321 54.4906 39.1635 54.4906H36.632V49.9861H39.6102C40.4044 49.9861 41.0001 50.1846 41.3971 50.5817C41.8067 50.9664 42.0114 51.5 42.0114 52.1825Z" fill="#4EA2B5"/>
<path d="M43.94 59.6466V38.613H57.193V59.6466H43.94ZM55.5364 50.6562H56.4857V49.4463H51.2924V50.6562H54.1776V51.7358C54.1776 52.4679 53.8735 53.138 53.2655 53.746C52.6574 54.3417 51.8012 54.6395 50.6968 54.6395C49.369 54.6395 48.308 54.1804 47.5138 53.2621C46.7196 52.3438 46.3225 51.1339 46.3225 49.6324C46.3225 48.1557 46.7382 46.952 47.5697 46.0213C48.4011 45.0906 49.4931 44.6253 50.8457 44.6253C51.5902 44.6253 52.1983 44.7184 52.6698 44.9045C53.1538 45.0782 53.5633 45.2768 53.8984 45.5001L54.2706 47.2126L55.4247 47.0823L55.0896 44.8114C54.6305 44.4019 54.0349 44.0669 53.3027 43.8063C52.583 43.5333 51.7392 43.3968 50.7712 43.3968C49.6172 43.3968 48.5934 43.6822 47.7 44.253C46.8189 44.8114 46.124 45.5684 45.6152 46.5239C45.1188 47.467 44.8707 48.5218 44.8707 49.6882C44.8707 51.4255 45.3856 52.8898 46.4156 54.0811C47.4456 55.2724 48.792 55.868 50.4548 55.868C51.3483 55.868 52.1238 55.6943 52.7815 55.3468C53.4516 54.987 53.9666 54.5402 54.3265 54.0066L54.494 55.6819H55.5364V50.6562Z" fill="#7BB966"/>
<path d="M56.7551 59.6466V38.613H68.0723V59.6466H56.7551ZM57.7231 55.6819H66.7321L67.0858 52.2569L65.9131 52.1266L65.5409 54.4906H60.6082V50.135H66.3226V48.9437H60.6082V44.7742H65.3733L65.7456 47.1381L66.9369 47.0079L66.5646 43.5829H57.7231V44.7742H59.2494V54.4906H57.7231V55.6819Z" fill="#CB2525"/>
<path d="M32.779 59.6466H31.3247V61.1008H32.779V59.6466ZM32.779 38.613V37.1588H31.3247V38.613H32.779ZM44.394 38.613H45.8482V37.1588H44.394V38.613ZM44.394 59.6466V61.1008H45.8482V59.6466H44.394ZM42.8304 50.2467L41.6522 51.099L41.6565 51.105L41.661 51.111L42.8304 50.2467ZM40.876 49.1671H39.4218V50.4133L40.6533 50.6041L40.876 49.1671ZM40.876 49.0926L40.5908 47.6666L39.4218 47.9004V49.0926H40.876ZM42.3837 48.1805L41.2453 47.2757H41.2453L42.3837 48.1805ZM42.0486 44.3833L41.0783 45.4664L41.0839 45.4714L41.0895 45.4763L42.0486 44.3833ZM33.7469 43.5829V42.1287H32.2927V43.5829H33.7469ZM33.7469 44.7742H32.2927V46.2284H33.7469V44.7742ZM35.2732 44.7742H36.7274V43.32H35.2732V44.7742ZM35.2732 54.4906V55.9448H36.7274V54.4906H35.2732ZM33.7469 54.4906V53.0364H32.2927V54.4906H33.7469ZM33.7469 55.6819H32.2927V57.1361H33.7469V55.6819ZM42.4395 54.6954L43.4486 55.7425L43.4583 55.733L42.4395 54.6954ZM40.8015 48.348L41.679 49.5076L41.6837 49.5041L40.8015 48.348ZM36.632 48.8692H35.1778V50.3234H36.632V48.8692ZM36.632 44.7742V43.32H35.1778V44.7742H36.632ZM40.8573 45.2209L40.0187 46.409L40.0268 46.4147L40.035 46.4202L40.8573 45.2209ZM41.2296 53.9508L42.0694 55.138L42.0749 55.1341L41.2296 53.9508ZM36.632 54.4906H35.1778V55.9448H36.632V54.4906ZM36.632 49.9861V48.5319H35.1778V49.9861H36.632ZM41.3971 50.5817L40.3689 51.61L40.3849 51.626L40.4015 51.6416L41.3971 50.5817ZM34.2332 59.6466V38.613H31.3247V59.6466H34.2332ZM32.779 40.0672H44.394V37.1588H32.779V40.0672ZM42.9398 38.613V59.6466H45.8482V38.613H42.9398ZM44.394 58.1924H32.779V61.1008H44.394V58.1924ZM44.9175 52.2569C44.9175 51.204 44.6225 50.2247 43.9998 49.3823L41.661 51.111C41.8822 51.4103 42.0091 51.7711 42.0091 52.2569H44.9175ZM44.0086 49.3943C43.3073 48.4248 42.2663 47.9109 41.0986 47.73L40.6533 50.6041C41.2477 50.6962 41.5097 50.9021 41.6522 51.099L44.0086 49.3943ZM42.3302 49.1671V49.0926H39.4218V49.1671H42.3302ZM41.1612 50.5186C42.11 50.3288 42.9181 49.8452 43.5221 49.0854L41.2453 47.2757C41.0799 47.4837 40.8828 47.6082 40.5908 47.6666L41.1612 50.5186ZM43.5221 49.0854C44.1207 48.3323 44.4149 47.4451 44.4149 46.4867H41.5065C41.5065 46.8188 41.416 47.0608 41.2453 47.2757L43.5221 49.0854ZM44.4149 46.4867C44.4149 45.2343 43.9558 44.1222 43.0078 43.2903L41.0895 45.4763C41.3576 45.7116 41.5065 46.0017 41.5065 46.4867H44.4149ZM43.0189 43.3002C42.0451 42.4278 40.7141 42.1287 39.3124 42.1287V45.0371C40.3678 45.0371 40.8608 45.2716 41.0783 45.4664L43.0189 43.3002ZM39.3124 42.1287H33.7469V45.0371H39.3124V42.1287ZM32.2927 43.5829V44.7742H35.2011V43.5829H32.2927ZM33.7469 46.2284H35.2732V43.32H33.7469V46.2284ZM33.819 44.7742V54.4906H36.7274V44.7742H33.819ZM35.2732 53.0364H33.7469V55.9448H35.2732V53.0364ZM32.2927 54.4906V55.6819H35.2011V54.4906H32.2927ZM33.7469 57.1361H39.4055V54.2277H33.7469V57.1361ZM39.4055 57.1361C40.9654 57.1361 42.4001 56.7529 43.4486 55.7425L41.4305 53.6482C41.114 53.9532 40.526 54.2277 39.4055 54.2277V57.1361ZM43.4583 55.733C44.419 54.7898 44.9175 53.6032 44.9175 52.2569H42.0091C42.0091 52.8217 41.825 53.2607 41.4207 53.6577L43.4583 55.733ZM40.0546 46.8031C40.0546 47.0869 39.9802 47.1456 39.9193 47.192L41.6837 49.5041C42.566 48.8308 42.963 47.8595 42.963 46.8031H40.0546ZM39.924 47.1885C39.7749 47.3013 39.5166 47.415 39.0332 47.415V50.3234C39.9892 50.3234 40.9099 50.0897 41.679 49.5076L39.924 47.1885ZM39.0332 47.415H36.632V50.3234H39.0332V47.415ZM38.0862 48.8692V44.7742H35.1778V48.8692H38.0862ZM36.632 46.2284H39.089V43.32H36.632V46.2284ZM39.089 46.2284C39.6789 46.2284 39.9322 46.3479 40.0187 46.409L41.696 44.0329C40.9386 43.4983 40.0131 43.32 39.089 43.32V46.2284ZM40.035 46.4202C40.023 46.4121 40.0104 46.4004 40.001 46.3884C39.9921 46.3772 39.994 46.3758 40.0013 46.3935C40.0181 46.4343 40.0546 46.5557 40.0546 46.8031H42.963C42.963 45.7914 42.6644 44.6968 41.6797 44.0216L40.035 46.4202ZM40.5572 52.1825C40.5572 52.6554 40.4248 52.7386 40.3844 52.7675L42.0749 55.1341C43.0768 54.4184 43.4656 53.3228 43.4656 52.1825H40.5572ZM40.3899 52.7636C40.2063 52.8934 39.8464 53.0364 39.1635 53.0364V55.9448C40.2179 55.9448 41.2354 55.7279 42.0694 55.138L40.3899 52.7636ZM39.1635 53.0364H36.632V55.9448H39.1635V53.0364ZM38.0862 54.4906V49.9861H35.1778V54.4906H38.0862ZM36.632 51.4403H39.6102V48.5319H36.632V51.4403ZM39.6102 51.4403C40.1803 51.4403 40.3407 51.5818 40.3689 51.61L42.4254 49.5534C41.6594 48.7874 40.6286 48.5319 39.6102 48.5319V51.4403ZM40.4015 51.6416C40.457 51.6937 40.5572 51.8086 40.5572 52.1825H43.4656C43.4656 51.1914 43.1563 50.239 42.3928 49.5218L40.4015 51.6416ZM43.94 59.6466H42.4858V61.1008H43.94V59.6466ZM43.94 38.613V37.1588H42.4858V38.613H43.94ZM57.193 38.613H58.6472V37.1588H57.193V38.613ZM57.193 59.6466V61.1008H58.6472V59.6466H57.193ZM55.5364 50.6562V49.202H54.0822V50.6562H55.5364ZM56.4857 50.6562V52.1104H57.9399V50.6562H56.4857ZM56.4857 49.4463H57.9399V47.9921H56.4857V49.4463ZM51.2924 49.4463V47.9921H49.8382V49.4463H51.2924ZM51.2924 50.6562H49.8382V52.1104H51.2924V50.6562ZM54.1776 50.6562H55.6318V49.202H54.1776V50.6562ZM53.2655 53.746L54.2831 54.7849L54.2885 54.7796L54.2938 54.7743L53.2655 53.746ZM47.5138 53.2621L46.4139 54.2134L47.5138 53.2621ZM47.5697 46.0213L46.4852 45.0525L47.5697 46.0213ZM52.6698 44.9045L52.1359 46.2571L52.1571 46.2655L52.1785 46.2732L52.6698 44.9045ZM53.8984 45.5001L55.3194 45.1912L55.1944 44.6164L54.705 44.2902L53.8984 45.5001ZM54.2706 47.2126L52.8496 47.5215L53.1286 48.805L54.4338 48.6576L54.2706 47.2126ZM55.4247 47.0823L55.5878 48.5273L57.0829 48.3585L56.8633 46.87L55.4247 47.0823ZM55.0896 44.8114L56.5283 44.5992L56.4513 44.0773L56.0576 43.7262L55.0896 44.8114ZM53.3027 43.8063L52.787 45.166L52.801 45.1713L52.8151 45.1763L53.3027 43.8063ZM47.7 44.253L48.4784 45.4813L48.4829 45.4785L47.7 44.253ZM45.6152 46.5239L44.3316 45.8404L44.3284 45.8466L45.6152 46.5239ZM46.4156 54.0811L45.3155 55.0322L46.4156 54.0811ZM52.7815 55.3468L53.4608 56.6327L53.4695 56.628L52.7815 55.3468ZM54.3265 54.0066L55.7735 53.8619L55.3727 49.8545L53.1208 53.1935L54.3265 54.0066ZM54.494 55.6819L53.047 55.8266L53.178 57.1361H54.494V55.6819ZM55.5364 55.6819V57.1361H56.9906V55.6819H55.5364ZM45.3942 59.6466V38.613H42.4858V59.6466H45.3942ZM43.94 40.0672H57.193V37.1588H43.94V40.0672ZM55.7388 38.613V59.6466H58.6472V38.613H55.7388ZM57.193 58.1924H43.94V61.1008H57.193V58.1924ZM55.5364 52.1104H56.4857V49.202H55.5364V52.1104ZM57.9399 50.6562V49.4463H55.0315V50.6562H57.9399ZM56.4857 47.9921H51.2924V50.9005H56.4857V47.9921ZM49.8382 49.4463V50.6562H52.7466V49.4463H49.8382ZM51.2924 52.1104H54.1776V49.202H51.2924V52.1104ZM52.7234 50.6562V51.7358H55.6318V50.6562H52.7234ZM52.7234 51.7358C52.7234 52.0153 52.6238 52.3312 52.2372 52.7178L54.2938 54.7743C55.1232 53.9448 55.6318 52.9205 55.6318 51.7358H52.7234ZM52.2479 52.7072C51.9855 52.9643 51.5384 53.1853 50.6968 53.1853V56.0937C52.064 56.0937 53.3294 55.7191 54.2831 54.7849L52.2479 52.7072ZM50.6968 53.1853C49.7467 53.1853 49.1038 52.8775 48.6137 52.3108L46.4139 54.2134C47.5122 55.4833 48.9913 56.0937 50.6968 56.0937V53.1853ZM48.6137 52.3108C48.0986 51.7152 47.7767 50.8704 47.7767 49.6324H44.8683C44.8683 51.3974 45.3407 52.9725 46.4139 54.2134L48.6137 52.3108ZM47.7767 49.6324C47.7767 48.4439 48.1032 47.6068 48.6541 46.9901L46.4852 45.0525C45.3732 46.2972 44.8683 47.8675 44.8683 49.6324H47.7767ZM48.6541 46.9901C49.1847 46.3962 49.8682 46.0795 50.8457 46.0795V43.1711C49.118 43.1711 47.6174 43.785 46.4852 45.0525L48.6541 46.9901ZM50.8457 46.0795C51.4855 46.0795 51.8943 46.1618 52.1359 46.2571L53.2038 43.5519C52.5022 43.2749 51.695 43.1711 50.8457 43.1711V46.0795ZM52.1785 46.2732C52.5803 46.4174 52.8776 46.5674 53.0917 46.7101L54.705 44.2902C54.249 43.9861 53.7273 43.739 53.1612 43.5358L52.1785 46.2732ZM52.4773 45.809L52.8496 47.5215L55.6916 46.9037L55.3194 45.1912L52.4773 45.809ZM54.4338 48.6576L55.5878 48.5273L55.2615 45.6373L54.1075 45.7676L54.4338 48.6576ZM56.8633 46.87L56.5283 44.5992L53.651 45.0237L53.9861 47.2946L56.8633 46.87ZM56.0576 43.7262C55.4266 43.1634 54.6547 42.7439 53.7903 42.4363L52.8151 45.1763C53.415 45.3898 53.8343 45.6404 54.1217 45.8967L56.0576 43.7262ZM53.8185 42.4466C52.8976 42.0973 51.8718 41.9426 50.7712 41.9426V44.851C51.6065 44.851 52.2683 44.9692 52.787 45.166L53.8185 42.4466ZM50.7712 41.9426C49.3653 41.9426 48.0649 42.2942 46.917 43.0276L48.4829 45.4785C49.1219 45.0702 49.8691 44.851 50.7712 44.851V41.9426ZM46.9215 43.0247C45.8195 43.7232 44.9541 44.6714 44.3316 45.8404L46.8988 47.2074C47.2939 46.4654 47.8183 45.8997 48.4784 45.4813L46.9215 43.0247ZM44.3284 45.8466C43.7119 47.0178 43.4165 48.3085 43.4165 49.6882H46.3249C46.3249 48.735 46.5257 47.9162 46.9021 47.2012L44.3284 45.8466ZM43.4165 49.6882C43.4165 51.7361 44.033 53.5488 45.3155 55.0322L47.5157 53.13C46.7382 52.2308 46.3249 51.115 46.3249 49.6882H43.4165ZM45.3155 55.0322C46.6388 56.5627 48.3965 57.3222 50.4548 57.3222V54.4138C49.1874 54.4138 48.2523 53.982 47.5157 53.13L45.3155 55.0322ZM50.4548 57.3222C51.5377 57.3222 52.5556 57.1109 53.4608 56.6326L52.1022 54.061C51.6921 54.2777 51.1588 54.4138 50.4548 54.4138V57.3222ZM53.4695 56.628C54.3099 56.1767 55.0182 55.5817 55.5321 54.8197L53.1208 53.1935C52.915 53.4987 52.5934 53.7972 52.0935 54.0657L53.4695 56.628ZM52.8795 54.1513L53.047 55.8266L55.941 55.5372L55.7735 53.8619L52.8795 54.1513ZM54.494 57.1361H55.5364V54.2277H54.494V57.1361ZM56.9906 55.6819V50.6562H54.0822V55.6819H56.9906ZM56.7551 59.6466H55.3009V61.1008H56.7551V59.6466ZM56.7551 38.613V37.1588H55.3009V38.613H56.7551ZM68.0723 38.613H69.5265V37.1588H68.0723V38.613ZM68.0723 59.6466V61.1008H69.5265V59.6466H68.0723ZM57.7231 55.6819H56.2688V57.1361H57.7231V55.6819ZM66.7321 55.6819V57.1361H68.0439L68.1786 55.8313L66.7321 55.6819ZM67.0858 52.2569L68.5323 52.4063L68.6805 50.971L67.2464 50.8116L67.0858 52.2569ZM65.9131 52.1266L66.0737 50.6813L64.6928 50.5279L64.4766 51.9004L65.9131 52.1266ZM65.5409 54.4906V55.9448H66.784L66.9774 54.7168L65.5409 54.4906ZM60.6082 54.4906H59.154V55.9448H60.6082V54.4906ZM60.6082 50.135V48.6808H59.154V50.135H60.6082ZM66.3226 50.135V51.5892H67.7768V50.135H66.3226ZM66.3226 48.9437H67.7768V47.4895H66.3226V48.9437ZM60.6082 48.9437H59.154V50.3979H60.6082V48.9437ZM60.6082 44.7742V43.32H59.154V44.7742H60.6082ZM65.3733 44.7742L66.8098 44.548L66.6164 43.32H65.3733V44.7742ZM65.7456 47.1381L64.3091 47.3644L64.5249 48.7345L65.9037 48.5837L65.7456 47.1381ZM66.9369 47.0079L67.095 48.4534L68.5396 48.2954L68.3826 46.8507L66.9369 47.0079ZM66.5646 43.5829L68.0103 43.4258L67.8693 42.1287H66.5646V43.5829ZM57.7231 43.5829V42.1287H56.2688V43.5829H57.7231ZM57.7231 44.7742H56.2688V46.2284H57.7231V44.7742ZM59.2494 44.7742H60.7036V43.32H59.2494V44.7742ZM59.2494 54.4906V55.9448H60.7036V54.4906H59.2494ZM57.7231 54.4906V53.0364H56.2688V54.4906H57.7231ZM58.2093 59.6466V38.613H55.3009V59.6466H58.2093ZM56.7551 40.0672H68.0723V37.1588H56.7551V40.0672ZM66.6181 38.613V59.6466H69.5265V38.613H66.6181ZM68.0723 58.1924H56.7551V61.1008H68.0723V58.1924ZM57.7231 57.1361H66.7321V54.2277H57.7231V57.1361ZM68.1786 55.8313L68.5323 52.4063L65.6393 52.1076L65.2856 55.5325L68.1786 55.8313ZM67.2464 50.8116L66.0737 50.6813L65.7525 53.572L66.9252 53.7023L67.2464 50.8116ZM64.4766 51.9004L64.1044 54.2644L66.9774 54.7168L67.3496 52.3529L64.4766 51.9004ZM65.5409 53.0364H60.6082V55.9448H65.5409V53.0364ZM62.0624 54.4906V50.135H59.154V54.4906H62.0624ZM60.6082 51.5892H66.3226V48.6808H60.6082V51.5892ZM67.7768 50.135V48.9437H64.8684V50.135H67.7768ZM66.3226 47.4895H60.6082V50.3979H66.3226V47.4895ZM62.0624 48.9437V44.7742H59.154V48.9437H62.0624ZM60.6082 46.2284H65.3733V43.32H60.6082V46.2284ZM63.9368 45.0004L64.3091 47.3644L67.1821 46.9119L66.8098 44.548L63.9368 45.0004ZM65.9037 48.5837L67.095 48.4534L66.7788 45.5623L65.5875 45.6926L65.9037 48.5837ZM68.3826 46.8507L68.0103 43.4258L65.1189 43.7401L65.4912 47.165L68.3826 46.8507ZM66.5646 42.1287H57.7231V45.0371H66.5646V42.1287ZM56.2688 43.5829V44.7742H59.1773V43.5829H56.2688ZM57.7231 46.2284H59.2494V43.32H57.7231V46.2284ZM57.7952 44.7742V54.4906H60.7036V44.7742H57.7952ZM59.2494 53.0364H57.7231V55.9448H59.2494V53.0364ZM56.2688 54.4906V55.6819H59.1773V54.4906H56.2688Z" fill="black" mask="url(#path-12-inside-1_0_1)"/>
</g>
<path d="M88.536 24.584C88.536 25.816 88.096 26.864 87.216 27.728C86.336 28.576 85.032 29 83.304 29H76.008V27.464H77.976V14.936H76.008V13.4H83.184C84.768 13.4 85.944 13.744 86.712 14.432C87.496 15.12 87.888 16.024 87.888 17.144C87.888 17.976 87.64 18.704 87.144 19.328C86.648 19.952 86 20.344 85.2 20.504V20.6C86.336 20.776 87.176 21.24 87.72 21.992C88.264 22.728 88.536 23.592 88.536 24.584ZM86.016 17.552C86.016 16.576 85.736 15.896 85.176 15.512C84.632 15.128 83.872 14.936 82.896 14.936H79.728V20.216H82.824C83.752 20.216 84.512 19.992 85.104 19.544C85.712 19.08 86.016 18.416 86.016 17.552ZM86.664 24.488C86.664 23.608 86.4 22.92 85.872 22.424C85.36 21.912 84.592 21.656 83.568 21.656H79.728V27.464H82.992C84.112 27.464 85 27.232 85.656 26.768C86.328 26.288 86.664 25.528 86.664 24.488Z" fill="#4EA2B5"/>
<path d="M100.908 23.648C100.908 25.264 100.428 26.6 99.4684 27.656C98.5084 28.712 97.2044 29.24 95.5564 29.24C93.9404 29.24 92.6684 28.728 91.7404 27.704C90.8284 26.68 90.3724 25.36 90.3724 23.744C90.3724 22.192 90.8204 20.864 91.7164 19.76C92.6124 18.64 93.9244 18.08 95.6524 18.08C97.3964 18.08 98.7084 18.632 99.5884 19.736C100.468 20.824 100.908 22.128 100.908 23.648ZM99.1324 23.624C99.1324 22.408 98.8204 21.424 98.1964 20.672C97.5884 19.904 96.7244 19.52 95.6044 19.52C94.4844 19.52 93.6204 19.912 93.0124 20.696C92.4204 21.48 92.1244 22.464 92.1244 23.648C92.1244 24.816 92.4204 25.8 93.0124 26.6C93.6044 27.4 94.4684 27.8 95.6044 27.8C96.7404 27.8 97.6124 27.408 98.2204 26.624C98.8284 25.824 99.1324 24.824 99.1324 23.624ZM103.733 19.136C104.293 18.768 104.885 18.504 105.509 18.344C106.133 18.184 106.797 18.104 107.501 18.104C110.045 18.104 111.317 19.296 111.317 21.68V26.768C111.317 27.536 111.621 27.92 112.229 27.92C112.501 27.92 112.741 27.872 112.949 27.776L112.973 28.88C112.541 29.12 112.077 29.24 111.581 29.24C110.317 29.24 109.669 28.52 109.637 27.08V27.032C109.301 27.608 108.821 28.12 108.197 28.568C107.589 29.016 106.853 29.24 105.989 29.24C105.285 29.24 104.565 29.024 103.829 28.592C103.109 28.16 102.749 27.376 102.749 26.24C102.749 24.896 103.277 24.016 104.333 23.6C105.405 23.168 106.541 22.952 107.741 22.952C108.061 22.952 108.381 22.96 108.701 22.976C109.037 22.992 109.349 23.016 109.637 23.048V22.088C109.637 21.32 109.469 20.696 109.133 20.216C108.813 19.736 108.173 19.496 107.213 19.496C106.429 19.496 105.741 19.64 105.149 19.928L104.741 21.776L103.349 21.608L103.733 19.136ZM109.637 24.992V24.176C109.333 24.16 109.013 24.136 108.677 24.104C108.341 24.072 107.997 24.056 107.645 24.056C106.845 24.056 106.117 24.184 105.461 24.44C104.821 24.68 104.501 25.216 104.501 26.048C104.501 26.736 104.717 27.208 105.149 27.464C105.581 27.72 106.029 27.848 106.493 27.848C107.229 27.848 107.917 27.592 108.557 27.08C109.213 26.568 109.573 25.872 109.637 24.992ZM120.207 18.128C120.975 18.128 121.583 18.312 122.031 18.68L122.439 21.368L121.071 21.536L120.663 19.712C120.391 19.616 120.119 19.568 119.847 19.568C119.223 19.568 118.703 19.832 118.287 20.36C117.871 20.872 117.663 21.544 117.663 22.376V27.632H120.135V29H114.111V27.632H115.983V19.688H114.063V18.32H117.567V20.24C117.775 19.648 118.111 19.152 118.575 18.752C119.055 18.336 119.599 18.128 120.207 18.128ZM136.309 29H132.781V26.84C132.429 27.48 131.949 28.04 131.341 28.52C130.733 29 129.941 29.24 128.965 29.24C127.589 29.24 126.477 28.776 125.629 27.848C124.797 26.904 124.381 25.6 124.381 23.936C124.381 22.512 124.749 21.184 125.485 19.952C126.221 18.72 127.461 18.104 129.205 18.104C130.869 18.104 132.061 18.752 132.781 20.048V13.856H130.189V12.488H134.461V27.632H136.309V29ZM132.781 24.272V22.568C132.749 21.672 132.421 20.944 131.797 20.384C131.173 19.824 130.437 19.544 129.589 19.544C128.405 19.544 127.533 19.976 126.973 20.84C126.429 21.704 126.157 22.696 126.157 23.816C126.157 25.128 126.461 26.12 127.069 26.792C127.693 27.464 128.469 27.8 129.397 27.8C130.357 27.8 131.149 27.416 131.773 26.648C132.413 25.864 132.749 25.072 132.781 24.272ZM160.616 19.136C161.176 18.768 161.768 18.504 162.392 18.344C163.016 18.184 163.68 18.104 164.384 18.104C166.928 18.104 168.2 19.296 168.2 21.68V26.768C168.2 27.536 168.504 27.92 169.112 27.92C169.384 27.92 169.624 27.872 169.832 27.776L169.856 28.88C169.424 29.12 168.96 29.24 168.464 29.24C167.2 29.24 166.552 28.52 166.52 27.08V27.032C166.184 27.608 165.704 28.12 165.08 28.568C164.472 29.016 163.736 29.24 162.872 29.24C162.168 29.24 161.448 29.024 160.712 28.592C159.992 28.16 159.632 27.376 159.632 26.24C159.632 24.896 160.16 24.016 161.216 23.6C162.288 23.168 163.424 22.952 164.624 22.952C164.944 22.952 165.264 22.96 165.584 22.976C165.92 22.992 166.232 23.016 166.52 23.048V22.088C166.52 21.32 166.352 20.696 166.016 20.216C165.696 19.736 165.056 19.496 164.096 19.496C163.312 19.496 162.624 19.64 162.032 19.928L161.624 21.776L160.232 21.608L160.616 19.136ZM166.52 24.992V24.176C166.216 24.16 165.896 24.136 165.56 24.104C165.224 24.072 164.88 24.056 164.528 24.056C163.728 24.056 163 24.184 162.344 24.44C161.704 24.68 161.384 25.216 161.384 26.048C161.384 26.736 161.6 27.208 162.032 27.464C162.464 27.72 162.912 27.848 163.376 27.848C164.112 27.848 164.8 27.592 165.44 27.08C166.096 26.568 166.456 25.872 166.52 24.992ZM190.769 29H185.657V27.632H187.217V22.664C187.217 21.512 186.985 20.704 186.521 20.24C186.073 19.76 185.497 19.52 184.793 19.52C183.817 19.52 183.065 19.888 182.537 20.624C182.009 21.36 181.737 22.064 181.721 22.736V27.632H183.569V29H178.481V27.632H180.017V22.664C180.017 21.496 179.793 20.68 179.345 20.216C178.897 19.752 178.329 19.52 177.641 19.52C176.649 19.52 175.889 19.88 175.361 20.6C174.849 21.304 174.577 22 174.545 22.688V27.632H176.513V29H170.993V27.632H172.865V19.688H170.969V18.32H174.545V20.312C174.897 19.672 175.369 19.144 175.961 18.728C176.553 18.312 177.273 18.104 178.121 18.104C178.953 18.104 179.673 18.312 180.281 18.728C180.905 19.144 181.329 19.792 181.553 20.672C181.873 19.92 182.345 19.304 182.969 18.824C183.609 18.344 184.393 18.104 185.321 18.104C186.345 18.104 187.193 18.424 187.865 19.064C188.553 19.704 188.897 20.736 188.897 22.16V27.632H190.769V29ZM201.432 25.928C201.288 26.84 200.832 27.624 200.064 28.28C199.296 28.92 198.256 29.24 196.944 29.24C195.44 29.24 194.224 28.768 193.296 27.824C192.368 26.88 191.904 25.544 191.904 23.816C191.904 22.152 192.344 20.784 193.224 19.712C194.104 18.64 195.296 18.104 196.8 18.104C198.272 18.104 199.392 18.568 200.16 19.496C200.928 20.424 201.32 21.52 201.336 22.784C201.336 23.2 201.288 23.624 201.192 24.056H193.68C193.776 26.552 194.904 27.8 197.064 27.8C197.912 27.8 198.576 27.6 199.056 27.2C199.536 26.8 199.856 26.272 200.016 25.616L201.432 25.928ZM199.56 22.808C199.64 22.008 199.448 21.256 198.984 20.552C198.536 19.848 197.792 19.496 196.752 19.496C195.76 19.496 195.032 19.824 194.568 20.48C194.104 21.136 193.816 21.912 193.704 22.808H199.56ZM101.061 58H96.3574V56.632H97.7494L95.2534 53.56L92.7334 56.632H94.0054V58H89.5654V56.632H91.0294L94.3894 52.672L91.0054 48.688H89.5654V47.32H94.4374V48.688H92.9974L95.3974 51.712L97.8694 48.688H96.5974V47.32H100.869V48.688H99.6214L96.2854 52.576L99.7174 56.632H101.061V58ZM111.311 54.4C111.167 55.328 110.743 56.2 110.039 57.016C109.351 57.832 108.271 58.24 106.799 58.24C105.327 58.24 104.151 57.768 103.271 56.824C102.391 55.864 101.951 54.528 101.951 52.816C101.951 51.344 102.367 50.024 103.199 48.856C104.031 47.688 105.279 47.104 106.943 47.104C107.647 47.104 108.295 47.184 108.887 47.344C109.479 47.504 110.047 47.792 110.591 48.208L110.999 50.776L109.607 50.944L109.199 49.144C108.559 48.744 107.799 48.544 106.919 48.544C105.783 48.544 104.967 48.952 104.471 49.768C103.975 50.584 103.727 51.568 103.727 52.72C103.727 54 104.007 55 104.567 55.72C105.127 56.44 105.935 56.8 106.991 56.8C108.591 56.8 109.551 55.896 109.871 54.088L111.311 54.4ZM125.349 58H119.925V56.632H121.797V51.664C121.797 50.512 121.557 49.704 121.077 49.24C120.613 48.76 120.013 48.52 119.277 48.52C118.349 48.52 117.589 48.84 116.997 49.48C116.421 50.104 116.117 50.808 116.085 51.592V56.632H117.933V58H112.533V56.632H114.381V42.856H112.533V41.488H116.085V49.24C116.869 47.816 118.117 47.104 119.829 47.104C120.869 47.104 121.741 47.424 122.445 48.064C123.149 48.704 123.501 49.736 123.501 51.16V56.632H125.349V58ZM127.499 48.136C128.059 47.768 128.651 47.504 129.275 47.344C129.899 47.184 130.563 47.104 131.267 47.104C133.811 47.104 135.083 48.296 135.083 50.68V55.768C135.083 56.536 135.387 56.92 135.995 56.92C136.267 56.92 136.507 56.872 136.715 56.776L136.739 57.88C136.307 58.12 135.843 58.24 135.347 58.24C134.083 58.24 133.435 57.52 133.403 56.08V56.032C133.067 56.608 132.587 57.12 131.963 57.568C131.355 58.016 130.619 58.24 129.755 58.24C129.051 58.24 128.331 58.024 127.595 57.592C126.875 57.16 126.515 56.376 126.515 55.24C126.515 53.896 127.043 53.016 128.099 52.6C129.171 52.168 130.307 51.952 131.507 51.952C131.827 51.952 132.147 51.96 132.467 51.976C132.803 51.992 133.115 52.016 133.403 52.048V51.088C133.403 50.32 133.235 49.696 132.899 49.216C132.579 48.736 131.939 48.496 130.979 48.496C130.195 48.496 129.507 48.64 128.915 48.928L128.507 50.776L127.115 50.608L127.499 48.136ZM133.403 53.992V53.176C133.099 53.16 132.779 53.136 132.443 53.104C132.107 53.072 131.763 53.056 131.411 53.056C130.611 53.056 129.883 53.184 129.227 53.44C128.587 53.68 128.267 54.216 128.267 55.048C128.267 55.736 128.483 56.208 128.915 56.464C129.347 56.72 129.795 56.848 130.259 56.848C130.995 56.848 131.683 56.592 132.323 56.08C132.979 55.568 133.339 54.872 133.403 53.992ZM150.692 58H145.292V56.632H147.14V51.664C147.14 50.512 146.908 49.704 146.444 49.24C145.98 48.76 145.388 48.52 144.668 48.52C143.708 48.52 142.932 48.84 142.34 49.48C141.764 50.104 141.46 50.824 141.428 51.64V56.632H143.3V58H137.876V56.632H139.748V48.688H137.828V47.32H141.428V49.216C142.196 47.808 143.444 47.104 145.172 47.104C146.212 47.104 147.084 47.424 147.788 48.064C148.492 48.704 148.844 49.736 148.844 51.16V56.632H150.692V58ZM163.658 48.688H161.93V57.856C161.93 59.536 161.466 60.872 160.538 61.864C159.626 62.856 158.338 63.352 156.674 63.352C155.554 63.352 154.546 63.096 153.65 62.584C152.77 62.072 152.186 61.28 151.898 60.208L153.242 59.536C153.514 60.368 153.986 60.968 154.658 61.336C155.33 61.72 156.026 61.912 156.746 61.912C157.77 61.912 158.602 61.552 159.242 60.832C159.898 60.128 160.226 59.112 160.226 57.784V55.816C159.906 56.44 159.442 56.984 158.834 57.448C158.226 57.912 157.418 58.144 156.41 58.144C155.146 58.144 154.066 57.696 153.17 56.8C152.274 55.904 151.826 54.616 151.826 52.936C151.826 51.512 152.21 50.184 152.978 48.952C153.746 47.72 154.954 47.104 156.602 47.104C158.298 47.104 159.506 47.736 160.226 49V47.32H163.658V48.688ZM160.226 53.392V51.544C160.226 50.648 159.914 49.928 159.29 49.384C158.682 48.824 157.938 48.544 157.058 48.544C155.858 48.544 154.986 48.976 154.442 49.84C153.914 50.704 153.65 51.696 153.65 52.816C153.65 54.128 153.946 55.104 154.538 55.744C155.146 56.384 155.89 56.704 156.77 56.704C157.794 56.704 158.618 56.352 159.242 55.648C159.866 54.944 160.194 54.192 160.226 53.392ZM174.503 54.928C174.359 55.84 173.903 56.624 173.135 57.28C172.367 57.92 171.327 58.24 170.015 58.24C168.511 58.24 167.295 57.768 166.367 56.824C165.439 55.88 164.975 54.544 164.975 52.816C164.975 51.152 165.415 49.784 166.295 48.712C167.175 47.64 168.367 47.104 169.871 47.104C171.343 47.104 172.463 47.568 173.231 48.496C173.999 49.424 174.391 50.52 174.407 51.784C174.407 52.2 174.359 52.624 174.263 53.056H166.751C166.847 55.552 167.975 56.8 170.135 56.8C170.983 56.8 171.647 56.6 172.127 56.2C172.607 55.8 172.927 55.272 173.087 54.616L174.503 54.928ZM172.631 51.808C172.711 51.008 172.519 50.256 172.055 49.552C171.607 48.848 170.863 48.496 169.823 48.496C168.831 48.496 168.103 48.824 167.639 49.48C167.175 50.136 166.887 50.912 166.775 51.808H172.631Z" fill="black"/>
<path d="M158.014 22.52H156.79V29H155.446L155.23 26.84C154.766 27.528 154.102 28.104 153.238 28.568C152.39 29.016 151.39 29.24 150.238 29.24C148.094 29.24 146.358 28.472 145.03 26.936C143.702 25.4 143.038 23.512 143.038 21.272C143.038 19.768 143.358 18.408 143.998 17.192C144.654 15.96 145.55 14.984 146.686 14.264C147.838 13.528 149.158 13.16 150.646 13.16C151.894 13.16 152.982 13.336 153.91 13.688C154.854 14.024 155.622 14.456 156.214 14.984L156.646 17.912L155.158 18.08L154.678 15.872C154.246 15.584 153.718 15.328 153.094 15.104C152.486 14.864 151.702 14.744 150.742 14.744C148.998 14.744 147.59 15.344 146.518 16.544C145.446 17.744 144.91 19.296 144.91 21.2C144.91 23.136 145.422 24.696 146.446 25.88C147.47 27.064 148.838 27.656 150.55 27.656C151.974 27.656 153.078 27.272 153.862 26.504C154.646 25.72 155.038 24.856 155.038 23.912V22.52H151.318V20.96H158.014V22.52Z" fill="#7BB966"/>
<path d="M87.624 58H76.008V56.464H77.976V43.936H76.008V42.4H87.408L87.888 46.816L86.352 46.984L85.872 43.936H79.728V49.312H87.096V50.848H79.728V56.464H86.088L86.568 53.416L88.08 53.584L87.624 58Z" fill="#CB2525"/>
<defs>
<filter id="filter0_d_0_1" x="0" y="30.9827" width="31.3442" height="31.3441" filterUnits="userSpaceOnUse" color-interpolation-filters="sRGB">
<feFlood flood-opacity="0" result="BackgroundImageFix"/>
<feColorMatrix in="SourceAlpha" type="matrix" values="0 0 0 0 0 0 0 0 0 0 0 0 0 0 0 0 0 0 127 0" result="hardAlpha"/>
<feOffset dx="2.32673" dy="2.32673"/>
<feColorMatrix type="matrix" values="0 0 0 0 0 0 0 0 0 0 0 0 0 0 0 0 0 0 1 0"/>
<feBlend mode="normal" in2="BackgroundImageFix" result="effect1_dropShadow_0_1"/>
<feBlend mode="normal" in="SourceGraphic" in2="effect1_dropShadow_0_1" result="shape"/>
</filter>
<filter id="filter1_d_0_1" x="17.5878" y="0" width="39.7946" height="39.7947" filterUnits="userSpaceOnUse" color-interpolation-filters="sRGB">
<feFlood flood-opacity="0" result="BackgroundImageFix"/>
<feColorMatrix in="SourceAlpha" type="matrix" values="0 0 0 0 0 0 0 0 0 0 0 0 0 0 0 0 0 0 127 0" result="hardAlpha"/>
<feOffset dx="2.32673" dy="2.32673"/>
<feColorMatrix type="matrix" values="0 0 0 0 0 0 0 0 0 0 0 0 0 0 0 0 0 0 1 0"/>
<feBlend mode="normal" in2="BackgroundImageFix" result="effect1_dropShadow_0_1"/>
<feBlend mode="normal" in="SourceGraphic" in2="effect1_dropShadow_0_1" result="shape"/>
</filter>
<filter id="filter2_d_0_1" x="31.6156" y="38.613" width="37.6202" height="23.3604" filterUnits="userSpaceOnUse" color-interpolation-filters="sRGB">
<feFlood flood-opacity="0" result="BackgroundImageFix"/>
<feColorMatrix in="SourceAlpha" type="matrix" values="0 0 0 0 0 0 0 0 0 0 0 0 0 0 0 0 0 0 127 0" result="hardAlpha"/>
<feOffset dy="1.16336"/>
<feGaussianBlur stdDeviation="0.581681"/>
<feComposite in2="hardAlpha" operator="out"/>
<feColorMatrix type="matrix" values="0 0 0 0 0 0 0 0 0 0 0 0 0 0 0 0 0 0 0.25 0"/>
<feBlend mode="normal" in2="BackgroundImageFix" result="effect1_dropShadow_0_1"/>
<feBlend mode="normal" in="SourceGraphic" in2="effect1_dropShadow_0_1" result="shape"/>
</filter>
<clipPath id="clip0_0_1">
<rect width="20.9405" height="20.9405" fill="white" transform="translate(4.23108 34.8318) rotate(1.04484)"/>
</clipPath>
<clipPath id="clip1_0_1">
<rect x="28.8899" width="28.5024" height="28.5024" rx="2.90841" transform="rotate(23.3617 28.8899 0)" fill="white"/>
</clipPath>
<clipPath id="clip2_0_1">
<rect width="20.9405" height="20.9405" fill="white" transform="translate(30.8616 4.97021) rotate(23.3617)"/>
</clipPath>
</defs>
</svg>
