<svg width="360" height="165" viewBox="0 0 360 165" fill="none" xmlns="http://www.w3.org/2000/svg">
<g filter="url(#filter0_d_101_2544)">
<rect x="122.445" y="54.2173" width="48.3967" height="48.3967" rx="4.53719" transform="rotate(1.04484 122.445 54.2173)" fill="white"/>
<rect x="122.445" y="54.2173" width="48.3967" height="48.3967" rx="4.53719" transform="rotate(1.04484 122.445 54.2173)" stroke="black" stroke-width="1.00826"/>
<g clip-path="url(#clip0_101_2544)">
<path d="M137.374 65.0781C137.328 67.5835 135.26 69.5775 132.755 69.5318C130.249 69.4861 128.255 67.4181 128.301 64.9127C128.347 62.4073 130.415 60.4133 132.92 60.459C135.425 60.5046 137.419 62.5727 137.374 65.0781Z" fill="black"/>
<path d="M150.735 78.9355C150.689 81.441 148.621 83.4349 146.116 83.3892C143.61 83.3436 141.616 81.2755 141.662 78.7701C141.708 76.2647 143.776 74.2707 146.281 74.3164C148.786 74.3621 150.78 76.4301 150.735 78.9355Z" fill="black"/>
<path d="M136.877 92.2966C136.832 94.8021 134.763 96.796 132.258 96.7503C129.753 96.7046 127.759 94.6366 127.804 92.1312C127.85 89.6257 129.918 87.6318 132.424 87.6775C134.929 87.7232 136.923 89.7912 136.877 92.2966Z" fill="black"/>
<path d="M164.592 65.5745C164.547 68.0799 162.479 70.0739 159.973 70.0282C157.468 69.9825 155.474 67.9144 155.519 65.409C155.565 62.9036 157.633 60.9096 160.139 60.9553C162.644 61.001 164.638 63.0691 164.592 65.5745Z" fill="black"/>
<path d="M164.096 92.7932C164.05 95.2986 161.982 97.2926 159.477 97.2469C156.971 97.2012 154.977 95.1332 155.023 92.6277C155.069 90.1223 157.137 88.1284 159.642 88.174C162.148 88.2197 164.142 90.2878 164.096 92.7932Z" fill="black"/>
</g>
</g>
<g filter="url(#filter1_d_101_2544)">
<g clip-path="url(#clip1_101_2544)">
<rect x="171.126" width="49.405" height="49.405" rx="5.04132" transform="rotate(23.3617 171.126 0)" fill="white"/>
<g clip-path="url(#clip2_101_2544)">
<path d="M188.174 34.2718C187.18 36.5722 184.51 37.6316 182.209 36.6379C179.909 35.6443 178.849 32.9739 179.843 30.6735C180.837 28.3731 183.507 27.3138 185.807 28.3074C188.108 29.3011 189.167 31.9714 188.174 34.2718Z" fill="black"/>
<path d="M170.28 41.3702C169.287 43.6706 166.616 44.73 164.316 43.7363C162.016 42.7427 160.956 40.0723 161.95 37.7719C162.944 35.4715 165.614 34.4122 167.914 35.4058C170.215 36.3995 171.274 39.0698 170.28 41.3702Z" fill="black"/>
<path d="M206.067 27.1737C205.073 29.4741 202.403 30.5334 200.102 29.5398C197.802 28.5461 196.743 25.8758 197.736 23.5754C198.73 21.275 201.4 20.2157 203.701 21.2093C206.001 22.203 207.06 24.8733 206.067 27.1737Z" fill="black"/>
</g>
</g>
<rect x="171.389" y="0.662709" width="48.3967" height="48.3967" rx="4.53719" transform="rotate(23.3617 171.389 0.662709)" stroke="black" stroke-width="1.00826"/>
</g>
<g filter="url(#filter2_d_101_2544)">
<mask id="path-12-inside-1_101_2544" fill="white">
<path d="M177.867 104.922V68.463H198V104.922H177.867ZM196.387 92.1129C196.387 90.7793 196.022 89.6178 195.29 88.6283C194.559 87.6174 193.43 86.9936 191.903 86.757V86.6279C192.978 86.4128 193.849 85.8859 194.516 85.047C195.183 84.2081 195.516 83.2294 195.516 82.1109C195.516 80.6052 194.989 79.3899 193.935 78.465C192.903 77.5401 191.322 77.0777 189.192 77.0777H179.545V79.1426H182.191V95.9846H179.545V98.0496H189.354C191.677 98.0496 193.43 97.4796 194.613 96.3395C195.796 95.178 196.387 93.7691 196.387 92.1129ZM192.999 82.6594C192.999 83.8209 192.591 84.7136 191.773 85.3374C190.978 85.9396 189.956 86.2408 188.708 86.2408H184.546V79.1426H188.805C190.117 79.1426 191.139 79.4007 191.87 79.9169C192.623 80.4332 192.999 81.3473 192.999 82.6594ZM193.871 91.9838C193.871 93.382 193.419 94.4037 192.516 95.049C191.634 95.6727 190.44 95.9846 188.934 95.9846H184.546V88.1766H189.709C191.085 88.1766 192.118 88.5208 192.806 89.2091C193.516 89.8759 193.871 90.8008 193.871 91.9838Z"/>
<path d="M197.214 104.922V68.463H220.186V104.922H197.214ZM217.314 89.3382H218.96V87.241H209.958V89.3382H214.959V91.2095C214.959 92.4786 214.432 93.6401 213.378 94.6941C212.324 95.7265 210.84 96.2428 208.926 96.2428C206.624 96.2428 204.785 95.4469 203.408 93.8552C202.032 92.2635 201.343 90.1663 201.343 87.5636C201.343 85.004 202.064 82.9175 203.505 81.3043C204.946 79.6911 206.839 78.8845 209.184 78.8845C210.474 78.8845 211.528 79.0458 212.346 79.3684C213.184 79.6696 213.894 80.0137 214.475 80.4009L215.12 83.3692L217.121 83.1434L216.54 79.2071C215.744 78.4973 214.712 77.9165 213.443 77.4648C212.195 76.9916 210.732 76.755 209.055 76.755C207.054 76.755 205.28 77.2497 203.731 78.2392C202.204 79.2071 200.999 80.5192 200.117 82.1754C199.257 83.8102 198.827 85.6385 198.827 87.6604C198.827 90.6718 199.719 93.2099 201.505 95.2748C203.29 97.3397 205.624 98.3722 208.506 98.3722C210.055 98.3722 211.399 98.0711 212.539 97.4688C213.701 96.845 214.593 96.0707 215.217 95.1458L215.507 98.0496H217.314V89.3382Z"/>
<path d="M219.427 104.922V68.463H239.044V104.922H219.427ZM221.105 98.0496H236.721L237.334 92.1129L235.301 91.887L234.656 95.9846H226.106V88.4347H236.011V86.3698H226.106V79.1426H234.365L235.011 83.2402L237.076 83.0143L236.43 77.0777H221.105V79.1426H223.75V95.9846H221.105V98.0496Z"/>
</mask>
<path d="M177.867 104.922V68.463H198V104.922H177.867ZM196.387 92.1129C196.387 90.7793 196.022 89.6178 195.29 88.6283C194.559 87.6174 193.43 86.9936 191.903 86.757V86.6279C192.978 86.4128 193.849 85.8859 194.516 85.047C195.183 84.2081 195.516 83.2294 195.516 82.1109C195.516 80.6052 194.989 79.3899 193.935 78.465C192.903 77.5401 191.322 77.0777 189.192 77.0777H179.545V79.1426H182.191V95.9846H179.545V98.0496H189.354C191.677 98.0496 193.43 97.4796 194.613 96.3395C195.796 95.178 196.387 93.7691 196.387 92.1129ZM192.999 82.6594C192.999 83.8209 192.591 84.7136 191.773 85.3374C190.978 85.9396 189.956 86.2408 188.708 86.2408H184.546V79.1426H188.805C190.117 79.1426 191.139 79.4007 191.87 79.9169C192.623 80.4332 192.999 81.3473 192.999 82.6594ZM193.871 91.9838C193.871 93.382 193.419 94.4037 192.516 95.049C191.634 95.6727 190.44 95.9846 188.934 95.9846H184.546V88.1766H189.709C191.085 88.1766 192.118 88.5208 192.806 89.2091C193.516 89.8759 193.871 90.8008 193.871 91.9838Z" fill="#4EA2B5"/>
<path d="M197.214 104.922V68.463H220.186V104.922H197.214ZM217.314 89.3382H218.96V87.241H209.958V89.3382H214.959V91.2095C214.959 92.4786 214.432 93.6401 213.378 94.6941C212.324 95.7265 210.84 96.2428 208.926 96.2428C206.624 96.2428 204.785 95.4469 203.408 93.8552C202.032 92.2635 201.343 90.1663 201.343 87.5636C201.343 85.004 202.064 82.9175 203.505 81.3043C204.946 79.6911 206.839 78.8845 209.184 78.8845C210.474 78.8845 211.528 79.0458 212.346 79.3684C213.184 79.6696 213.894 80.0137 214.475 80.4009L215.12 83.3692L217.121 83.1434L216.54 79.2071C215.744 78.4973 214.712 77.9165 213.443 77.4648C212.195 76.9916 210.732 76.755 209.055 76.755C207.054 76.755 205.28 77.2497 203.731 78.2392C202.204 79.2071 200.999 80.5192 200.117 82.1754C199.257 83.8102 198.827 85.6385 198.827 87.6604C198.827 90.6718 199.719 93.2099 201.505 95.2748C203.29 97.3397 205.624 98.3722 208.506 98.3722C210.055 98.3722 211.399 98.0711 212.539 97.4688C213.701 96.845 214.593 96.0707 215.217 95.1458L215.507 98.0496H217.314V89.3382Z" fill="#7BB966"/>
<path d="M219.427 104.922V68.463H239.044V104.922H219.427ZM221.105 98.0496H236.721L237.334 92.1129L235.301 91.887L234.656 95.9846H226.106V88.4347H236.011V86.3698H226.106V79.1426H234.365L235.011 83.2402L237.076 83.0143L236.43 77.0777H221.105V79.1426H223.75V95.9846H221.105V98.0496Z" fill="#CB2525"/>
<path d="M177.867 104.922H175.347V107.443H177.867V104.922ZM177.867 68.463V65.9424H175.347V68.463H177.867ZM198 68.463H200.521V65.9424H198V68.463ZM198 104.922V107.443H200.521V104.922H198ZM195.29 88.6283L193.248 90.1057L193.256 90.1162L193.263 90.1266L195.29 88.6283ZM191.903 86.757H189.382V88.9172L191.517 89.2479L191.903 86.757ZM191.903 86.6279L191.408 84.1562L189.382 84.5615V86.6279H191.903ZM194.516 85.047L192.543 83.4785L192.543 83.4785L194.516 85.047ZM193.935 78.465L192.253 80.3425L192.263 80.3511L192.273 80.3596L193.935 78.465ZM179.545 77.0777V74.557H177.025V77.0777H179.545ZM179.545 79.1426H177.025V81.6632H179.545V79.1426ZM182.191 79.1426H184.712V76.6219H182.191V79.1426ZM182.191 95.9846V98.5053H184.712V95.9846H182.191ZM179.545 95.9846V93.464H177.025V95.9846H179.545ZM179.545 98.0496H177.025V100.57H179.545V98.0496ZM194.613 96.3395L196.362 98.1546L196.37 98.1464L196.379 98.1382L194.613 96.3395ZM191.773 85.3374L193.295 87.3474L193.303 87.3412L191.773 85.3374ZM184.546 86.2408H182.026V88.7614H184.546V86.2408ZM184.546 79.1426V76.6219H182.026V79.1426H184.546ZM191.87 79.9169L190.417 81.9762L190.431 81.9861L190.445 81.9958L191.87 79.9169ZM192.516 95.049L193.971 97.1069L193.981 97.1001L192.516 95.049ZM184.546 95.9846H182.026V98.5053H184.546V95.9846ZM184.546 88.1766V85.656H182.026V88.1766H184.546ZM192.806 89.2091L191.024 90.9915L191.051 91.0193L191.08 91.0463L192.806 89.2091ZM180.388 104.922V68.463H175.347V104.922H180.388ZM177.867 70.9837H198V65.9424H177.867V70.9837ZM195.48 68.463V104.922H200.521V68.463H195.48ZM198 102.401H177.867V107.443H198V102.401ZM198.908 92.1129C198.908 90.2878 198.397 88.5902 197.317 87.1301L193.263 90.1266C193.647 90.6453 193.867 91.2708 193.867 92.1129H198.908ZM197.333 87.1509C196.117 85.4703 194.312 84.5796 192.288 84.2661L191.517 89.2479C192.547 89.4076 193.001 89.7644 193.248 90.1057L197.333 87.1509ZM194.423 86.757V86.6279H189.382V86.757H194.423ZM192.397 89.0997C194.042 88.7707 195.442 87.9326 196.489 86.6154L192.543 83.4785C192.256 83.8392 191.914 84.055 191.408 84.1562L192.397 89.0997ZM196.489 86.6154C197.527 85.31 198.037 83.7722 198.037 82.1109H192.995C192.995 82.6866 192.839 83.1062 192.543 83.4785L196.489 86.6154ZM198.037 82.1109C198.037 79.9401 197.241 78.0124 195.598 76.5704L192.273 80.3596C192.737 80.7674 192.995 81.2704 192.995 82.1109H198.037ZM195.617 76.5876C193.929 75.0754 191.622 74.557 189.192 74.557V79.5983C191.022 79.5983 191.876 80.0048 192.253 80.3425L195.617 76.5876ZM189.192 74.557H179.545V79.5983H189.192V74.557ZM177.025 77.0777V79.1426H182.066V77.0777H177.025ZM179.545 81.6632H182.191V76.6219H179.545V81.6632ZM179.67 79.1426V95.9846H184.712V79.1426H179.67ZM182.191 93.464H179.545V98.5053H182.191V93.464ZM177.025 95.9846V98.0496H182.066V95.9846H177.025ZM179.545 100.57H189.354V95.5289H179.545V100.57ZM189.354 100.57C192.057 100.57 194.544 99.906 196.362 98.1546L192.864 94.5245C192.315 95.0531 191.296 95.5289 189.354 95.5289V100.57ZM196.379 98.1382C198.044 96.5032 198.908 94.4465 198.908 92.1129H193.867C193.867 93.0918 193.548 93.8528 192.847 94.5409L196.379 98.1382ZM190.479 82.6594C190.479 83.1513 190.35 83.253 190.244 83.3336L193.303 87.3412C194.832 86.1741 195.52 84.4906 195.52 82.6594H190.479ZM190.252 83.3274C189.994 83.523 189.546 83.7201 188.708 83.7201V88.7614C190.366 88.7614 191.961 88.3563 193.295 87.3474L190.252 83.3274ZM188.708 83.7201H184.546V88.7614H188.708V83.7201ZM187.067 86.2408V79.1426H182.026V86.2408H187.067ZM184.546 81.6632H188.805V76.6219H184.546V81.6632ZM188.805 81.6632C189.828 81.6632 190.267 81.8704 190.417 81.9762L193.324 77.8576C192.011 76.931 190.407 76.6219 188.805 76.6219V81.6632ZM190.445 81.9958C190.424 81.9816 190.402 81.9614 190.386 81.9406C190.37 81.9212 190.374 81.9188 190.386 81.9495C190.416 82.0202 190.479 82.2307 190.479 82.6594H195.52C195.52 80.9057 195.002 79.0084 193.296 77.8381L190.445 81.9958ZM191.35 91.9838C191.35 92.8036 191.12 92.9478 191.05 92.9978L193.981 97.1001C195.717 95.8595 196.391 93.9603 196.391 91.9838H191.35ZM191.06 92.9911C190.742 93.2161 190.118 93.464 188.934 93.464V98.5053C190.762 98.5053 192.526 98.1294 193.971 97.1069L191.06 92.9911ZM188.934 93.464H184.546V98.5053H188.934V93.464ZM187.067 95.9846V88.1766H182.026V95.9846H187.067ZM184.546 90.6973H189.709V85.656H184.546V90.6973ZM189.709 90.6973C190.697 90.6973 190.975 90.9426 191.024 90.9915L194.588 87.4267C193.261 86.099 191.474 85.656 189.709 85.656V90.6973ZM191.08 91.0463C191.176 91.1367 191.35 91.3357 191.35 91.9838H196.391C196.391 90.2659 195.855 88.6151 194.532 87.3719L191.08 91.0463ZM197.214 104.922H194.693V107.443H197.214V104.922ZM197.214 68.463V65.9424H194.693V68.463H197.214ZM220.186 68.463H222.707V65.9424H220.186V68.463ZM220.186 104.922V107.443H222.707V104.922H220.186ZM217.314 89.3382V86.8175H214.794V89.3382H217.314ZM218.96 89.3382V91.8588H221.48V89.3382H218.96ZM218.96 87.241H221.48V84.7203H218.96V87.241ZM209.958 87.241V84.7203H207.437V87.241H209.958ZM209.958 89.3382H207.437V91.8588H209.958V89.3382ZM214.959 89.3382H217.48V86.8175H214.959V89.3382ZM213.378 94.6941L215.142 96.4947L215.151 96.4856L215.16 96.4764L213.378 94.6941ZM203.408 93.8552L201.502 95.5041L203.408 93.8552ZM203.505 81.3043L201.625 79.625L201.625 79.625L203.505 81.3043ZM212.346 79.3684L211.42 81.713L211.457 81.7275L211.494 81.7409L212.346 79.3684ZM214.475 80.4009L216.938 79.8654L216.722 78.8691L215.873 78.3036L214.475 80.4009ZM215.12 83.3692L212.657 83.9047L213.141 86.1294L215.403 85.874L215.12 83.3692ZM217.121 83.1434L217.404 85.6481L219.995 85.3555L219.614 82.7755L217.121 83.1434ZM216.54 79.2071L219.034 78.8392L218.9 77.9346L218.218 77.326L216.54 79.2071ZM213.443 77.4648L212.549 79.8216L212.573 79.8308L212.597 79.8396L213.443 77.4648ZM203.731 78.2392L205.08 80.3682L205.088 80.3633L203.731 78.2392ZM200.117 82.1754L197.892 80.9907L197.887 81.0015L200.117 82.1754ZM201.505 95.2748L199.598 96.9234L199.598 96.9234L201.505 95.2748ZM212.539 97.4688L213.717 99.6976L213.724 99.6935L213.732 99.6895L212.539 97.4688ZM215.217 95.1458L217.725 94.8949L217.031 87.9486L213.127 93.7364L215.217 95.1458ZM215.507 98.0496L212.999 98.3004L213.226 100.57H215.507V98.0496ZM217.314 98.0496V100.57H219.835V98.0496H217.314ZM199.734 104.922V68.463H194.693V104.922H199.734ZM197.214 70.9837H220.186V65.9424H197.214V70.9837ZM217.665 68.463V104.922H222.707V68.463H217.665ZM220.186 102.401H197.214V107.443H220.186V102.401ZM217.314 91.8588H218.96V86.8175H217.314V91.8588ZM221.48 89.3382V87.241H216.439V89.3382H221.48ZM218.96 84.7203H209.958V89.7616H218.96V84.7203ZM207.437 87.241V89.3382H212.479V87.241H207.437ZM209.958 91.8588H214.959V86.8175H209.958V91.8588ZM212.438 89.3382V91.2095H217.48V89.3382H212.438ZM212.438 91.2095C212.438 91.694 212.266 92.2415 211.596 92.9117L215.16 96.4764C216.598 95.0386 217.48 93.2631 217.48 91.2095H212.438ZM211.614 92.8934C211.159 93.3389 210.384 93.7221 208.926 93.7221V98.7634C211.295 98.7634 213.489 98.1141 215.142 96.4947L211.614 92.8934ZM208.926 93.7221C207.279 93.7221 206.164 93.1885 205.315 92.2063L201.502 95.5041C203.406 97.7053 205.969 98.7634 208.926 98.7634V93.7221ZM205.315 92.2063C204.422 91.1738 203.864 89.7095 203.864 87.5636H198.823C198.823 90.6231 199.642 93.3531 201.502 95.5041L205.315 92.2063ZM203.864 87.5636C203.864 85.5034 204.43 84.0525 205.385 82.9836L201.625 79.625C199.698 81.7825 198.823 84.5045 198.823 87.5636H203.864ZM205.385 82.9836C206.305 81.9541 207.489 81.4051 209.184 81.4051V76.3638C206.189 76.3638 203.588 77.428 201.625 79.625L205.385 82.9836ZM209.184 81.4051C210.293 81.4051 211.001 81.5478 211.42 81.713L213.271 77.0238C212.055 76.5438 210.656 76.3638 209.184 76.3638V81.4051ZM211.494 81.7409C212.19 81.9909 212.706 82.2508 213.077 82.4982L215.873 78.3036C215.083 77.7766 214.179 77.3483 213.197 76.996L211.494 81.7409ZM212.012 80.9364L212.657 83.9047L217.583 82.8338L216.938 79.8654L212.012 80.9364ZM215.403 85.874L217.404 85.6481L216.838 80.6386L214.838 80.8645L215.403 85.874ZM219.614 82.7755L219.034 78.8392L214.046 79.575L214.627 83.5113L219.614 82.7755ZM218.218 77.326C217.124 76.3506 215.786 75.6234 214.288 75.0901L212.597 79.8396C213.637 80.2097 214.364 80.644 214.862 81.0883L218.218 77.326ZM214.337 75.108C212.74 74.5026 210.962 74.2344 209.055 74.2344V79.2757C210.502 79.2757 211.65 79.4806 212.549 79.8216L214.337 75.108ZM209.055 74.2344C206.618 74.2344 204.364 74.8438 202.374 76.115L205.088 80.3633C206.196 79.6557 207.491 79.2757 209.055 79.2757V74.2344ZM202.382 76.1101C200.471 77.3208 198.971 78.9644 197.892 80.9907L202.342 83.3601C203.027 82.074 203.936 81.0935 205.08 80.3682L202.382 76.1101ZM197.887 81.0015C196.818 83.0316 196.306 85.2689 196.306 87.6604H201.347C201.347 86.0081 201.696 84.5888 202.348 83.3494L197.887 81.0015ZM196.306 87.6604C196.306 91.2101 197.375 94.3522 199.598 96.9234L203.412 93.6262C202.064 92.0676 201.347 90.1334 201.347 87.6604H196.306ZM199.598 96.9234C201.892 99.5764 204.938 100.893 208.506 100.893V95.8515C206.309 95.8515 204.688 95.1031 203.412 93.6262L199.598 96.9234ZM208.506 100.893C210.383 100.893 212.148 100.526 213.717 99.6976L211.362 95.24C210.651 95.6156 209.726 95.8515 208.506 95.8515V100.893ZM213.732 99.6895C215.188 98.9072 216.416 97.876 217.307 96.5552L213.127 93.7364C212.771 94.2654 212.213 94.7828 211.347 95.2481L213.732 99.6895ZM212.709 95.3966L212.999 98.3004L218.016 97.7987L217.725 94.8949L212.709 95.3966ZM215.507 100.57H217.314V95.5289H215.507V100.57ZM219.835 98.0496V89.3382H214.794V98.0496H219.835ZM219.427 104.922H216.906V107.443H219.427V104.922ZM219.427 68.463V65.9424H216.906V68.463H219.427ZM239.044 68.463H241.564V65.9424H239.044V68.463ZM239.044 104.922V107.443H241.564V104.922H239.044ZM221.105 98.0496H218.584V100.57H221.105V98.0496ZM236.721 98.0496V100.57H238.994L239.228 98.3085L236.721 98.0496ZM237.334 92.1129L239.841 92.3718L240.098 89.8839L237.612 89.6077L237.334 92.1129ZM235.301 91.887L235.579 89.3818L233.186 89.1158L232.811 91.4949L235.301 91.887ZM234.656 95.9846V98.5053H236.81L237.146 96.3768L234.656 95.9846ZM226.106 95.9846H223.585V98.5053H226.106V95.9846ZM226.106 88.4347V85.9141H223.585V88.4347H226.106ZM236.011 88.4347V90.9554H238.531V88.4347H236.011ZM236.011 86.3698H238.531V83.8492H236.011V86.3698ZM226.106 86.3698H223.585V88.8905H226.106V86.3698ZM226.106 79.1426V76.6219H223.585V79.1426H226.106ZM234.365 79.1426L236.855 78.7505L236.52 76.6219H234.365V79.1426ZM235.011 83.2402L232.521 83.6323L232.895 86.0073L235.285 85.7459L235.011 83.2402ZM237.076 83.0143L237.35 85.52L239.854 85.2462L239.581 82.7419L237.076 83.0143ZM236.43 77.0777L238.936 76.8053L238.692 74.557H236.43V77.0777ZM221.105 77.0777V74.557H218.584V77.0777H221.105ZM221.105 79.1426H218.584V81.6632H221.105V79.1426ZM223.75 79.1426H226.271V76.6219H223.75V79.1426ZM223.75 95.9846V98.5053H226.271V95.9846H223.75ZM221.105 95.9846V93.464H218.584V95.9846H221.105ZM221.948 104.922V68.463H216.906V104.922H221.948ZM219.427 70.9837H239.044V65.9424H219.427V70.9837ZM236.523 68.463V104.922H241.564V68.463H236.523ZM239.044 102.401H219.427V107.443H239.044V102.401ZM221.105 100.57H236.721V95.5289H221.105V100.57ZM239.228 98.3085L239.841 92.3718L234.826 91.854L234.213 97.7907L239.228 98.3085ZM237.612 89.6077L235.579 89.3818L235.023 94.3923L237.055 94.6181L237.612 89.6077ZM232.811 91.4949L232.166 95.5925L237.146 96.3768L237.791 92.2792L232.811 91.4949ZM234.656 93.464H226.106V98.5053H234.656V93.464ZM228.626 95.9846V88.4347H223.585V95.9846H228.626ZM226.106 90.9554H236.011V85.9141H226.106V90.9554ZM238.531 88.4347V86.3698H233.49V88.4347H238.531ZM236.011 83.8492H226.106V88.8905H236.011V83.8492ZM228.626 86.3698V79.1426H223.585V86.3698H228.626ZM226.106 81.6632H234.365V76.6219H226.106V81.6632ZM231.875 79.5347L232.521 83.6323L237.501 82.848L236.855 78.7505L231.875 79.5347ZM235.285 85.7459L237.35 85.52L236.801 80.5086L234.737 80.7345L235.285 85.7459ZM239.581 82.7419L238.936 76.8053L233.924 77.35L234.57 83.2867L239.581 82.7419ZM236.43 74.557H221.105V79.5983H236.43V74.557ZM218.584 77.0777V79.1426H223.625V77.0777H218.584ZM221.105 81.6632H223.75V76.6219H221.105V81.6632ZM221.23 79.1426V95.9846H226.271V79.1426H221.23ZM223.75 93.464H221.105V98.5053H223.75V93.464ZM218.584 95.9846V98.0496H223.625V95.9846H218.584Z" fill="black" mask="url(#path-12-inside-1_101_2544)"/>
</g>
<path d="M42.6886 139.612C42.6886 141.255 42.102 142.652 40.9286 143.804C39.7553 144.935 38.0166 145.5 35.7126 145.5H25.9846V143.452H28.6086V126.748H25.9846V124.7H35.5526C37.6646 124.7 39.2326 125.159 40.2566 126.076C41.302 126.993 41.8246 128.199 41.8246 129.692C41.8246 130.801 41.494 131.772 40.8326 132.604C40.1713 133.436 39.3073 133.959 38.2406 134.172V134.3C39.7553 134.535 40.8753 135.153 41.6006 136.156C42.326 137.137 42.6886 138.289 42.6886 139.612ZM39.3286 130.236C39.3286 128.935 38.9553 128.028 38.2086 127.516C37.4833 127.004 36.47 126.748 35.1686 126.748H30.9446V133.788H35.0726C36.31 133.788 37.3233 133.489 38.1126 132.892C38.9233 132.273 39.3286 131.388 39.3286 130.236ZM40.1926 139.484C40.1926 138.311 39.8406 137.393 39.1366 136.732C38.454 136.049 37.43 135.708 36.0646 135.708H30.9446V143.452H35.2966C36.79 143.452 37.974 143.143 38.8486 142.524C39.7446 141.884 40.1926 140.871 40.1926 139.484Z" fill="#4EA2B5"/>
<path d="M59.1851 138.364C59.1851 140.519 58.5451 142.3 57.2651 143.708C55.9851 145.116 54.2465 145.82 52.0491 145.82C49.8945 145.82 48.1985 145.137 46.9611 143.772C45.7451 142.407 45.1371 140.647 45.1371 138.492C45.1371 136.423 45.7345 134.652 46.9291 133.18C48.1238 131.687 49.8731 130.94 52.1771 130.94C54.5025 130.94 56.2518 131.676 57.4251 133.148C58.5985 134.599 59.1851 136.337 59.1851 138.364ZM56.8171 138.332C56.8171 136.711 56.4011 135.399 55.5691 134.396C54.7585 133.372 53.6065 132.86 52.1131 132.86C50.6198 132.86 49.4678 133.383 48.6571 134.428C47.8678 135.473 47.4731 136.785 47.4731 138.364C47.4731 139.921 47.8678 141.233 48.6571 142.3C49.4465 143.367 50.5985 143.9 52.1131 143.9C53.6278 143.9 54.7905 143.377 55.6011 142.332C56.4118 141.265 56.8171 139.932 56.8171 138.332ZM62.9514 132.348C63.698 131.857 64.4874 131.505 65.3194 131.292C66.1514 131.079 67.0367 130.972 67.9754 130.972C71.3674 130.972 73.0634 132.561 73.0634 135.74V142.524C73.0634 143.548 73.4687 144.06 74.2794 144.06C74.642 144.06 74.962 143.996 75.2394 143.868L75.2714 145.34C74.6954 145.66 74.0767 145.82 73.4154 145.82C71.73 145.82 70.866 144.86 70.8234 142.94V142.876C70.3754 143.644 69.7354 144.327 68.9034 144.924C68.0927 145.521 67.1114 145.82 65.9594 145.82C65.0207 145.82 64.0607 145.532 63.0794 144.956C62.1194 144.38 61.6394 143.335 61.6394 141.82C61.6394 140.028 62.3434 138.855 63.7514 138.3C65.1807 137.724 66.6954 137.436 68.2954 137.436C68.722 137.436 69.1487 137.447 69.5754 137.468C70.0234 137.489 70.4394 137.521 70.8234 137.564V136.284C70.8234 135.26 70.5994 134.428 70.1514 133.788C69.7247 133.148 68.8714 132.828 67.5914 132.828C66.546 132.828 65.6287 133.02 64.8394 133.404L64.2954 135.868L62.4394 135.644L62.9514 132.348ZM70.8234 140.156V139.068C70.418 139.047 69.9914 139.015 69.5434 138.972C69.0954 138.929 68.6367 138.908 68.1674 138.908C67.1007 138.908 66.13 139.079 65.2554 139.42C64.402 139.74 63.9754 140.455 63.9754 141.564C63.9754 142.481 64.2634 143.111 64.8394 143.452C65.4154 143.793 66.0127 143.964 66.6314 143.964C67.6127 143.964 68.53 143.623 69.3834 142.94C70.258 142.257 70.738 141.329 70.8234 140.156ZM84.9161 131.004C85.9401 131.004 86.7508 131.249 87.3481 131.74L87.8921 135.324L86.0681 135.548L85.5241 133.116C85.1615 132.988 84.7988 132.924 84.4361 132.924C83.6041 132.924 82.9108 133.276 82.3561 133.98C81.8015 134.663 81.5241 135.559 81.5241 136.668V143.676H84.8201V145.5H76.7881V143.676H79.2841V133.084H76.7241V131.26H81.3961V133.82C81.6735 133.031 82.1215 132.369 82.7401 131.836C83.3801 131.281 84.1055 131.004 84.9161 131.004ZM106.386 145.5H101.682V142.62C101.212 143.473 100.572 144.22 99.7616 144.86C98.951 145.5 97.895 145.82 96.5936 145.82C94.759 145.82 93.2763 145.201 92.1456 143.964C91.0363 142.705 90.4816 140.967 90.4816 138.748C90.4816 136.849 90.9723 135.079 91.9536 133.436C92.935 131.793 94.5883 130.972 96.9136 130.972C99.1323 130.972 100.722 131.836 101.682 133.564V125.308H98.2256V123.484H103.922V143.676H106.386V145.5ZM101.682 139.196V136.924C101.639 135.729 101.202 134.759 100.37 134.012C99.5376 133.265 98.5563 132.892 97.4256 132.892C95.847 132.892 94.6843 133.468 93.9376 134.62C93.2123 135.772 92.8496 137.095 92.8496 138.588C92.8496 140.337 93.255 141.66 94.0656 142.556C94.8976 143.452 95.9323 143.9 97.1696 143.9C98.4496 143.9 99.5056 143.388 100.338 142.364C101.191 141.319 101.639 140.263 101.682 139.196ZM138.795 132.348C139.542 131.857 140.331 131.505 141.163 131.292C141.995 131.079 142.88 130.972 143.819 130.972C147.211 130.972 148.907 132.561 148.907 135.74V142.524C148.907 143.548 149.312 144.06 150.123 144.06C150.486 144.06 150.806 143.996 151.083 143.868L151.115 145.34C150.539 145.66 149.92 145.82 149.259 145.82C147.574 145.82 146.71 144.86 146.667 142.94V142.876C146.219 143.644 145.579 144.327 144.747 144.924C143.936 145.521 142.955 145.82 141.803 145.82C140.864 145.82 139.904 145.532 138.923 144.956C137.963 144.38 137.483 143.335 137.483 141.82C137.483 140.028 138.187 138.855 139.595 138.3C141.024 137.724 142.539 137.436 144.139 137.436C144.566 137.436 144.992 137.447 145.419 137.468C145.867 137.489 146.283 137.521 146.667 137.564V136.284C146.667 135.26 146.443 134.428 145.995 133.788C145.568 133.148 144.715 132.828 143.435 132.828C142.39 132.828 141.472 133.02 140.683 133.404L140.139 135.868L138.283 135.644L138.795 132.348ZM146.667 140.156V139.068C146.262 139.047 145.835 139.015 145.387 138.972C144.939 138.929 144.48 138.908 144.011 138.908C142.944 138.908 141.974 139.079 141.099 139.42C140.246 139.74 139.819 140.455 139.819 141.564C139.819 142.481 140.107 143.111 140.683 143.452C141.259 143.793 141.856 143.964 142.475 143.964C143.456 143.964 144.374 143.623 145.227 142.94C146.102 142.257 146.582 141.329 146.667 140.156ZM179 145.5H172.184V143.676H174.264V137.052C174.264 135.516 173.955 134.439 173.336 133.82C172.739 133.18 171.971 132.86 171.032 132.86C169.731 132.86 168.728 133.351 168.024 134.332C167.32 135.313 166.957 136.252 166.936 137.148V143.676H169.4V145.5H162.616V143.676H164.664V137.052C164.664 135.495 164.365 134.407 163.768 133.788C163.171 133.169 162.413 132.86 161.496 132.86C160.173 132.86 159.16 133.34 158.456 134.3C157.773 135.239 157.411 136.167 157.368 137.084V143.676H159.992V145.5H152.632V143.676H155.128V133.084H152.6V131.26H157.368V133.916C157.837 133.063 158.467 132.359 159.256 131.804C160.045 131.249 161.005 130.972 162.136 130.972C163.245 130.972 164.205 131.249 165.016 131.804C165.848 132.359 166.413 133.223 166.712 134.396C167.139 133.393 167.768 132.572 168.6 131.932C169.453 131.292 170.499 130.972 171.736 130.972C173.101 130.972 174.232 131.399 175.128 132.252C176.045 133.105 176.504 134.481 176.504 136.38V143.676H179V145.5ZM193.217 141.404C193.025 142.62 192.417 143.665 191.393 144.54C190.369 145.393 188.982 145.82 187.233 145.82C185.228 145.82 183.606 145.191 182.369 143.932C181.132 142.673 180.513 140.892 180.513 138.588C180.513 136.369 181.1 134.545 182.273 133.116C183.446 131.687 185.036 130.972 187.041 130.972C189.004 130.972 190.497 131.591 191.521 132.828C192.545 134.065 193.068 135.527 193.089 137.212C193.089 137.767 193.025 138.332 192.897 138.908H182.881C183.009 142.236 184.513 143.9 187.393 143.9C188.524 143.9 189.409 143.633 190.049 143.1C190.689 142.567 191.116 141.863 191.329 140.988L193.217 141.404ZM190.721 137.244C190.828 136.177 190.572 135.175 189.953 134.236C189.356 133.297 188.364 132.828 186.977 132.828C185.654 132.828 184.684 133.265 184.065 134.14C183.446 135.015 183.062 136.049 182.913 137.244H190.721ZM236.327 145.5H230.055V143.676H231.911L228.583 139.58L225.223 143.676H226.919V145.5H220.999V143.676H222.951L227.431 138.396L222.919 133.084H220.999V131.26H227.495V133.084H225.575L228.775 137.116L232.071 133.084H230.375V131.26H236.071V133.084H234.407L229.959 138.268L234.535 143.676H236.327V145.5ZM249.993 140.7C249.801 141.937 249.236 143.1 248.297 144.188C247.38 145.276 245.94 145.82 243.977 145.82C242.014 145.82 240.446 145.191 239.273 143.932C238.1 142.652 237.513 140.871 237.513 138.588C237.513 136.625 238.068 134.865 239.177 133.308C240.286 131.751 241.95 130.972 244.169 130.972C245.108 130.972 245.972 131.079 246.761 131.292C247.55 131.505 248.308 131.889 249.033 132.444L249.577 135.868L247.721 136.092L247.177 133.692C246.324 133.159 245.31 132.892 244.137 132.892C242.622 132.892 241.534 133.436 240.873 134.524C240.212 135.612 239.881 136.924 239.881 138.46C239.881 140.167 240.254 141.5 241.001 142.46C241.748 143.42 242.825 143.9 244.233 143.9C246.366 143.9 247.646 142.695 248.073 140.284L249.993 140.7ZM268.71 145.5H261.478V143.676H263.974V137.052C263.974 135.516 263.654 134.439 263.014 133.82C262.395 133.18 261.595 132.86 260.614 132.86C259.377 132.86 258.363 133.287 257.574 134.14C256.806 134.972 256.401 135.911 256.358 136.956V143.676H258.822V145.5H251.622V143.676H254.086V125.308H251.622V123.484H256.358V133.82C257.403 131.921 259.067 130.972 261.35 130.972C262.737 130.972 263.899 131.399 264.838 132.252C265.777 133.105 266.246 134.481 266.246 136.38V143.676H268.71V145.5ZM271.576 132.348C272.323 131.857 273.112 131.505 273.944 131.292C274.776 131.079 275.662 130.972 276.6 130.972C279.992 130.972 281.688 132.561 281.688 135.74V142.524C281.688 143.548 282.094 144.06 282.904 144.06C283.267 144.06 283.587 143.996 283.864 143.868L283.896 145.34C283.32 145.66 282.702 145.82 282.04 145.82C280.355 145.82 279.491 144.86 279.448 142.94V142.876C279 143.644 278.36 144.327 277.528 144.924C276.718 145.521 275.736 145.82 274.584 145.82C273.646 145.82 272.686 145.532 271.704 144.956C270.744 144.38 270.264 143.335 270.264 141.82C270.264 140.028 270.968 138.855 272.376 138.3C273.806 137.724 275.32 137.436 276.92 137.436C277.347 137.436 277.774 137.447 278.2 137.468C278.648 137.489 279.064 137.521 279.448 137.564V136.284C279.448 135.26 279.224 134.428 278.776 133.788C278.35 133.148 277.496 132.828 276.216 132.828C275.171 132.828 274.254 133.02 273.464 133.404L272.92 135.868L271.064 135.644L271.576 132.348ZM279.448 140.156V139.068C279.043 139.047 278.616 139.015 278.168 138.972C277.72 138.929 277.262 138.908 276.792 138.908C275.726 138.908 274.755 139.079 273.88 139.42C273.027 139.74 272.6 140.455 272.6 141.564C272.6 142.481 272.888 143.111 273.464 143.452C274.04 143.793 274.638 143.964 275.256 143.964C276.238 143.964 277.155 143.623 278.008 142.94C278.883 142.257 279.363 141.329 279.448 140.156ZM302.501 145.5H295.301V143.676H297.765V137.052C297.765 135.516 297.456 134.439 296.837 133.82C296.218 133.18 295.429 132.86 294.469 132.86C293.189 132.86 292.154 133.287 291.365 134.14C290.597 134.972 290.192 135.932 290.149 137.02V143.676H292.645V145.5H285.413V143.676H287.909V133.084H285.349V131.26H290.149V133.788C291.173 131.911 292.837 130.972 295.141 130.972C296.528 130.972 297.69 131.399 298.629 132.252C299.568 133.105 300.037 134.481 300.037 136.38V143.676H302.501V145.5ZM319.789 133.084H317.485V145.308C317.485 147.548 316.866 149.329 315.629 150.652C314.413 151.975 312.696 152.636 310.477 152.636C308.984 152.636 307.64 152.295 306.445 151.612C305.272 150.929 304.493 149.873 304.109 148.444L305.901 147.548C306.264 148.657 306.893 149.457 307.789 149.948C308.685 150.46 309.613 150.716 310.573 150.716C311.938 150.716 313.048 150.236 313.901 149.276C314.776 148.337 315.213 146.983 315.213 145.212V142.588C314.786 143.42 314.168 144.145 313.357 144.764C312.546 145.383 311.469 145.692 310.125 145.692C308.44 145.692 307 145.095 305.805 143.9C304.61 142.705 304.013 140.988 304.013 138.748C304.013 136.849 304.525 135.079 305.549 133.436C306.573 131.793 308.184 130.972 310.381 130.972C312.642 130.972 314.253 131.815 315.213 133.5V131.26H319.789V133.084ZM315.213 139.356V136.892C315.213 135.697 314.797 134.737 313.965 134.012C313.154 133.265 312.162 132.892 310.989 132.892C309.389 132.892 308.226 133.468 307.501 134.62C306.797 135.772 306.445 137.095 306.445 138.588C306.445 140.337 306.84 141.639 307.629 142.492C308.44 143.345 309.432 143.772 310.605 143.772C311.97 143.772 313.069 143.303 313.901 142.364C314.733 141.425 315.17 140.423 315.213 139.356ZM334.248 141.404C334.056 142.62 333.448 143.665 332.424 144.54C331.4 145.393 330.013 145.82 328.264 145.82C326.259 145.82 324.637 145.191 323.4 143.932C322.163 142.673 321.544 140.892 321.544 138.588C321.544 136.369 322.131 134.545 323.304 133.116C324.477 131.687 326.067 130.972 328.072 130.972C330.035 130.972 331.528 131.591 332.552 132.828C333.576 134.065 334.099 135.527 334.12 137.212C334.12 137.767 334.056 138.332 333.928 138.908H323.912C324.04 142.236 325.544 143.9 328.424 143.9C329.555 143.9 330.44 143.633 331.08 143.1C331.72 142.567 332.147 141.863 332.36 140.988L334.248 141.404ZM331.752 137.244C331.859 136.177 331.603 135.175 330.984 134.236C330.387 133.297 329.395 132.828 328.008 132.828C326.685 132.828 325.715 133.265 325.096 134.14C324.477 135.015 324.093 136.049 323.944 137.244H331.752Z" fill="black"/>
<path d="M135.326 136.86H133.694V145.5H131.902L131.614 142.62C130.995 143.537 130.11 144.305 128.958 144.924C127.827 145.521 126.494 145.82 124.958 145.82C122.099 145.82 119.785 144.796 118.014 142.748C116.243 140.7 115.358 138.183 115.358 135.196C115.358 133.191 115.785 131.377 116.638 129.756C117.513 128.113 118.707 126.812 120.222 125.852C121.758 124.871 123.518 124.38 125.502 124.38C127.166 124.38 128.617 124.615 129.854 125.084C131.113 125.532 132.137 126.108 132.926 126.812L133.502 130.716L131.518 130.94L130.878 127.996C130.302 127.612 129.598 127.271 128.766 126.972C127.955 126.652 126.91 126.492 125.63 126.492C123.305 126.492 121.427 127.292 119.998 128.892C118.569 130.492 117.854 132.561 117.854 135.1C117.854 137.681 118.537 139.761 119.902 141.34C121.267 142.919 123.091 143.708 125.374 143.708C127.273 143.708 128.745 143.196 129.79 142.172C130.835 141.127 131.358 139.975 131.358 138.716V136.86H126.398V134.78H135.326V136.86Z" fill="#7BB966"/>
<path d="M218.41 145.5H202.922V143.452H205.546V126.748H202.922V124.7H218.122L218.762 130.588L216.714 130.812L216.074 126.748H207.882V133.916H217.706V135.964H207.882V143.452H216.362L217.002 139.388L219.018 139.612L218.41 145.5Z" fill="#CB2525"/>
<defs>
<filter id="filter0_d_101_2544" x="121.05" y="53.7041" width="54.3307" height="54.3307" filterUnits="userSpaceOnUse" color-interpolation-filters="sRGB">
<feFlood flood-opacity="0" result="BackgroundImageFix"/>
<feColorMatrix in="SourceAlpha" type="matrix" values="0 0 0 0 0 0 0 0 0 0 0 0 0 0 0 0 0 0 127 0" result="hardAlpha"/>
<feOffset dx="4.03306" dy="4.03306"/>
<feColorMatrix type="matrix" values="0 0 0 0 0 0 0 0 0 0 0 0 0 0 0 0 0 0 1 0"/>
<feBlend mode="normal" in2="BackgroundImageFix" result="effect1_dropShadow_101_2544"/>
<feBlend mode="normal" in="SourceGraphic" in2="effect1_dropShadow_101_2544" result="shape"/>
</filter>
<filter id="filter1_d_101_2544" x="151.536" y="0" width="68.9785" height="68.9786" filterUnits="userSpaceOnUse" color-interpolation-filters="sRGB">
<feFlood flood-opacity="0" result="BackgroundImageFix"/>
<feColorMatrix in="SourceAlpha" type="matrix" values="0 0 0 0 0 0 0 0 0 0 0 0 0 0 0 0 0 0 127 0" result="hardAlpha"/>
<feOffset dx="4.03306" dy="4.03306"/>
<feColorMatrix type="matrix" values="0 0 0 0 0 0 0 0 0 0 0 0 0 0 0 0 0 0 1 0"/>
<feBlend mode="normal" in2="BackgroundImageFix" result="effect1_dropShadow_101_2544"/>
<feBlend mode="normal" in="SourceGraphic" in2="effect1_dropShadow_101_2544" result="shape"/>
</filter>
<filter id="filter2_d_101_2544" x="175.851" y="68.4631" width="65.2093" height="40.4918" filterUnits="userSpaceOnUse" color-interpolation-filters="sRGB">
<feFlood flood-opacity="0" result="BackgroundImageFix"/>
<feColorMatrix in="SourceAlpha" type="matrix" values="0 0 0 0 0 0 0 0 0 0 0 0 0 0 0 0 0 0 127 0" result="hardAlpha"/>
<feOffset dy="2.01653"/>
<feGaussianBlur stdDeviation="1.00826"/>
<feComposite in2="hardAlpha" operator="out"/>
<feColorMatrix type="matrix" values="0 0 0 0 0 0 0 0 0 0 0 0 0 0 0 0 0 0 0.25 0"/>
<feBlend mode="normal" in2="BackgroundImageFix" result="effect1_dropShadow_101_2544"/>
<feBlend mode="normal" in="SourceGraphic" in2="effect1_dropShadow_101_2544" result="shape"/>
</filter>
<clipPath id="clip0_101_2544">
<rect width="36.2975" height="36.2975" fill="white" transform="translate(128.384 60.3762) rotate(1.04484)"/>
</clipPath>
<clipPath id="clip1_101_2544">
<rect x="171.126" width="49.405" height="49.405" rx="5.04132" transform="rotate(23.3617 171.126 0)" fill="white"/>
</clipPath>
<clipPath id="clip2_101_2544">
<rect width="36.2975" height="36.2975" fill="white" transform="translate(174.544 8.61523) rotate(23.3617)"/>
</clipPath>
</defs>
</svg>
